# Alias OBJ Model File
# Exported from SketchUp, (c) 2000-2012 Trimble Navigation Limited
# File units = meters

mtllib ExampleStaticHeatConduction2D.mtl

g Mesh1 Model

usemtl Boundary2
v 0.411757 0.0198824 -0.03
vt 0.782772 -1.1811
vn 1 0 0
v 0.411757 -0.0201176 0.02
vt -0.792031 0.787402
v 0.411757 -0.0201176 -0.03
vt -0.792031 -1.1811
f 1/1/1 2/2/1 3/3/1

v 0.411757 0.0198824 0.02
vt 0.782772 0.787402
f 2/2/1 1/1/1 4/4/1

usemtl BackColor
vn -1 -0 -0
f 3/3/2 2/2/2 1/1/2

f 4/4/2 1/1/2 2/2/2

usemtl VolumeA
vt -16.2109 -1.1811
vn 0 1 0
v 0.00175741 0.0198824 0.02
vt -0.0691892 0.787402
vt -16.2109 0.787402
f 1/5/3 5/6/3 4/7/3

v 0.206757 0.0198824 -0.03
vt -8.14006 -1.1811
f 6/8/3 5/6/3 1/5/3

v 0.152484 0.0198824 -0.03
vt -6.0033 -1.1811
f 7/9/3 5/6/3 6/8/3

v 0.00175741 0.0198824 -0.03
vt -0.0691892 -1.1811
f 5/6/3 7/9/3 8/10/3

usemtl BackColor
vn -0 -1 -0
f 8/10/4 7/9/4 5/6/4

usemtl Boundary1
vt -6.0033 0.782772
vn 0 0 -1
v 0.00175741 -0.0201176 -0.03
vt -0.0691892 -0.792031
vt -0.0691892 0.782772
f 7/11/5 9/12/5 8/13/5

v 0.152484 -0.0201176 -0.03
vt -6.0033 -0.792031
f 9/12/5 7/11/5 10/14/5

usemtl BackColor
vn -0 -0 1
f 8/13/6 9/12/6 7/11/6

usemtl Boundary3
vt 0.792031 -1.1811
vn -1 0 0
vt -0.782772 0.787402
vt -0.782772 -1.1811
f 9/15/7 5/16/7 8/17/7

v 0.00175741 -0.0201176 0.02
vt 0.792031 0.787402
f 5/16/7 9/15/7 11/18/7

usemtl BackColor
vn 1 -0 -0
f 11/18/8 9/15/8 5/16/8

f 8/17/8 5/16/8 9/15/8

usemtl Boundary1
vt 16.2109 -0.792031
vn 0 0 1
vt 0.0691892 0.782772
vt 0.0691892 -0.792031
f 2/19/9 5/20/9 11/21/9

vt 16.2109 0.782772
f 5/20/9 2/19/9 4/22/9

usemtl BackColor
vn -0 -0 -1
f 11/21/10 5/20/10 2/19/10

f 4/22/10 2/19/10 5/20/10

f 4/7/4 5/6/4 1/5/4

f 1/5/4 5/6/4 6/8/4

f 6/8/4 5/6/4 7/9/4

usemtl VolumeB
v 0.206757 0.0198824 -0.15
vt -8.14006 -5.90551
f 12/23/3 7/9/3 6/8/3

v 0.152484 0.0198824 -0.15
vt -6.0033 -5.90551
f 7/9/3 12/23/3 13/24/3

usemtl BackColor
f 13/24/4 12/23/4 7/9/4

usemtl Boundary1
vt -8.14006 0.782772
v 0.152484 -0.0201176 -0.15
f 12/25/5 14/14/5 13/11/5

v 0.206757 -0.0201176 -0.15
vt -8.14006 -0.792031
f 14/14/5 12/25/5 15/26/5

usemtl BackColor
f 13/11/6 14/14/6 12/25/6

usemtl Boundary1
vt 0.792031 -5.90551
vt -0.782772 -5.90551
f 14/27/7 7/17/7 13/28/7

f 7/17/7 14/27/7 10/15/7

usemtl BackColor
f 10/15/8 14/27/8 7/17/8

f 13/28/8 7/17/8 14/27/8

f 10/14/6 7/11/6 9/12/6

usemtl Boundary4
f 6/25/5 10/14/5 7/11/5

v 0.206757 -0.0201176 -0.03
f 10/14/5 6/25/5 16/26/5

usemtl BackColor
f 7/11/6 10/14/6 6/25/6

f 16/26/6 6/25/6 10/14/6

usemtl Boundary1
vt -16.2109 0.782772
f 1/29/5 16/26/5 6/25/5

vt -16.2109 -0.792031
f 16/26/5 1/29/5 3/30/5

usemtl BackColor
f 6/25/6 16/26/6 1/29/6

usemtl Boundary1
vt 0.782772 -5.90551
f 16/3/1 12/31/1 6/1/1

vt -0.792031 -5.90551
f 12/31/1 16/3/1 15/32/1

usemtl BackColor
f 15/32/2 16/3/2 12/31/2

f 6/1/2 12/31/2 16/3/2

f 6/8/4 7/9/4 12/23/4

f 15/26/6 12/25/6 14/14/6

f 3/30/6 1/29/6 16/26/6

